<!-- <svg xmlns="http://www.w3.org/2000/svg" fill="none" viewBox="0 0 283 64"><path fill="black" d="M141 16c-11 0-19 7-19 18s9 18 20 18c7 0 13-3 16-7l-7-5c-2 3-6 4-9 4-5 0-9-3-10-7h28v-3c0-11-8-18-19-18zm-9 15c1-4 4-7 9-7s8 3 9 7h-18zm117-15c-11 0-19 7-19 18s9 18 20 18c6 0 12-3 16-7l-8-5c-2 3-5 4-8 4-5 0-9-3-11-7h28l1-3c0-11-8-18-19-18zm-10 15c2-4 5-7 10-7s8 3 9 7h-19zm-39 3c0 6 4 10 10 10 4 0 7-2 9-5l8 5c-3 5-9 8-17 8-11 0-19-7-19-18s8-18 19-18c8 0 14 3 17 8l-8 5c-2-3-5-5-9-5-6 0-10 4-10 10zm83-29v46h-9V5h9zM37 0l37 64H0L37 0zm92 5-27 48L74 5h10l18 30 17-30h10zm59 12v10l-3-1c-6 0-10 4-10 10v15h-9V17h9v9c0-5 6-9 13-9z"/></svg> -->
<svg
              xmlns="http://www.w3.org/2000/svg"
              viewBox="0 0 283 80"
              fill="none"
            >
              <title>Fuel My Hustle</title>
              <path
                fill="#F2AB28"
                d="M59.966 0c.042.218.033.436.033.654V27.683c-.213.007-.404.019-.596.019-2.989.001-5.978-.001-8.968.002-.92.001-1.633.548-1.888 1.428-.361 1.25.68 2.345 1.639 2.42.166.014.334.01.5.01h9.283v3.984c-.186.006-.378.017-.57.017H45.321c-3.607 0-7.215.005-10.822-.002-.804-.002-1.47.244-1.925.946-.701 1.086-.066 2.637 1.197 2.9.291.06.594.084.892.084 8.233.004 16.466.003 24.699.003h.61v3.934c-.172.009-.347.026-.521.026-1.22.002-2.438.001-3.658.001-9.368 0-18.737-.002-28.106.007-.341 0-.701.057-1.021.174-.965.352-1.33 1.472-1.183 2.104.27 1.173 1.187 1.622 2.004 1.621 8.784-.01 17.568-.005 26.353-.005H59.944v3.995c-.193.015-.337.035-.48.035-.885.003-1.77.002-2.655.002-11.991 0-23.982.001-35.972-.003-.566 0-1.026.175-1.432.581-.575.575-.713 1.237-.451 1.977.27.762.83 1.198 1.633 1.294.182.021.367.01.55.01H59.322a24.531 24.531 0 0 1-1.159 4.002h-.606c-6.713 0-13.427.004-20.14-.005-.707 0-1.318.172-1.781.732-1.001 1.21-.224 2.833 1.083 3.116.29.062.594.084.891.084 6.029.005 12.058.004 18.087.004h.666c-.081.179-.125.297-.185.406a30.031 30.031 0 0 1-3.762 5.315c-2.256 2.56-4.879 4.649-7.85 6.308a29.824 29.824 0 0 1-9.085 3.278c-1.372.258-2.758.45-4.163.45-.498 0-.997.072-1.494.062a32.77 32.77 0 0 1-5.308-.514 29.076 29.076 0 0 1-6.524-2.023c-2.605-1.155-5.027-2.63-7.198-4.494-.746-.64-1.498-1.284-2.179-1.993-2.537-2.637-4.567-5.622-6.035-8.994-1.124-2.58-1.86-5.266-2.266-8.046-.111-.76-.173-1.525-.29-2.313a65.82 65.82 0 0 1 0-3.532c.084-.586.125-1.101.19-1.613.29-2.28.772-4.515 1.541-6.685a30.737 30.737 0 0 1 3.108-6.34 28.77 28.77 0 0 1 3.087-4.007 32.721 32.721 0 0 1 3.002-2.87c1.697-1.425 3.58-2.56 5.493-3.657 2.33-1.336 4.65-2.688 6.972-4.036 3.62-2.102 7.238-4.208 10.86-6.309 2.452-1.423 4.908-2.84 7.36-4.264C45.475 5.081 49.31 2.851 53.145.618c.327-.191.639-.411.957-.618h5.865Z"
              />
              <path
                fill="#221E50"
                d="M290 78.967c-.199.042-.397.032-.596.032H258V42h31.405c.104.349.141 4.63.043 5.677h-25.467v9.608c8.654 0 17.29 0 25.973-.007.046 1.832.046 3.672 0 5.567-8.551.056-17.056.057-25.56.059-.116 0-.232.01-.347.017-.014.001-.027.016-.04.026-.013.01-.024.023-.033.031v10.235h.612l24.868-.001c.182 0 .364-.01.546-.016v5.77Z"
              />
              <path
                fill="#F2AB28"
                d="M251.939 0c.051.187.06.374.06.56L252 36.306v.645h-5.976V8.988c-.052-.026-.066-.035-.081-.04a.08.08 0 0 0-.044 0c-.015.006-.028.018-.041.028a.355.355 0 0 0-.038.034l-.108.106-9.573 9.784a.4.4 0 0 1-.119.09c-.016.005-.033.006-.048.008l-9.82-10.04c-.086.027-.104.028-.117.038a.069.069 0 0 0-.024.037.68.68 0 0 0-.011.101c-.002.085-.001.17-.001.255l-.002 27.37c0 .034-.006.068-.011.102-.003.015-.012.03-.018.045-.348.102-5.229.133-5.938.033-.01-.123-.03-.254-.03-.384 0-12.154.001-24.307.007-36.507C221.98 0 223.947 0 225.959.036c.131.157.203.291.305.395 3.15 3.226 6.304 6.449 9.458 9.671.078.08.168.148.259.227.075-.062.13-.1.175-.146 3.213-3.283 6.425-6.565 9.634-9.852.087-.09.135-.22.201-.331h5.948Z"
              />
              <path
                fill="#221E50"
                d="M180.964 0c.044 1.703.038 3.406.032 5.11v.63c-1.823.005-3.62.002-5.416.003H159.346c-.106.39-.139 8.758-.038 9.6h21.657v5.559c-.002.002-.011.017-.024.028a.168.168 0 0 1-.092.037c-.052.005-.104.009-.156.009l-21.297.011c-.017 0-.034.007-.05.01-.113.37-.163 8.921-.055 10.252 1.79.037 3.588.011 5.384.016 1.805.005 3.611.001 5.416.001h10.867V37h-27.95c0-12.316 0-24.61-.008-36.953C162.3 0 171.608 0 180.964 0ZM131.122 79a55.043 55.043 0 0 1-1.581-.294c-3.802-.782-6.884-2.65-9.084-5.795a12.886 12.886 0 0 1-2.273-6.036 28.021 28.021 0 0 1-.175-3.037c-.014-7.05-.007-14.102-.007-21.153v-.63h6.253v.579c0 7.351-.007 14.703.005 22.055.003 1.766.462 3.423 1.456 4.92 1.151 1.733 2.782 2.833 4.816 3.354 1.826.468 3.662.448 5.461-.134 2.776-.898 4.547-2.761 5.388-5.47.308-.992.429-2.015.428-3.053-.002-7.218-.001-14.436-.001-21.654v-.544c.38-.111 5.108-.15 6.152-.052.01.12.031.247.031.374.001 7.72.027 15.439-.015 23.158-.012 2.352-.717 4.562-1.929 6.607-1.218 2.054-2.903 3.655-5.001 4.85-1.569.893-3.259 1.462-5.047 1.761-.319.054-.643.084-.987.16-1.296.034-2.569.034-3.89.034ZM124.23 0c.043.167.033.333.033.5-.001 7.394-.012 14.789.007 22.183.005 1.981.581 3.814 1.834 5.402 1.274 1.615 2.98 2.58 5.025 2.95 1.955.355 3.876.22 5.713-.579 2.095-.91 3.517-2.44 4.331-4.513.469-1.195.642-2.443.641-3.717-.001-7.378-.001-14.755-.009-22.18C143.826 0 145.855 0 147.932 0c.054.2.065.4.065.6.001 7.562.009 15.125-.005 22.688-.004 1.988-.473 3.887-1.326 5.697a13.191 13.191 0 0 1-3.212 4.297 14.246 14.246 0 0 1-5.109 2.898c-2.155.698-4.375.933-6.632.771-2.1-.15-4.117-.651-5.995-1.594-2.9-1.456-5.058-3.61-6.392-6.524-.781-1.707-1.211-3.49-1.247-5.36-.025-1.299-.065-2.598-.067-3.897-.007-6.495-.004-12.989-.012-19.53A275.8 275.8 0 0 1 124.23 0ZM112.965 0c.042 1.703.037 3.406.031 5.11v.617c-1.542.034-3.059.01-4.576.015-1.526.004-3.051 0-4.577 0H90.139V16.17h22.831v5.606H90.117V37h-6.105c-.004-.179-.011-.375-.011-.57V5.051c0-1.653 0-3.305.009-5.005C93.65 0 103.284 0 112.965 0Z"
              />
              <path
                fill="#F2AB28"
                d="M290 .172c-.419.717-.849 1.378-1.257 2.052-2.012 3.328-4.017 6.66-6.029 9.988-1.79 2.96-3.582 5.917-5.382 8.87-.206.337-.306.67-.305 1.071.013 4.408.008 8.816.008 13.224V36h-6.148v-.587c0-4.442-.002-8.883.005-13.324a1.626 1.626 0 0 0-.25-.884C266.467 14.273 262.299 7.336 258.13.4a1.088 1.088 0 0 1-.13-.343c2.116-.033 4.21-.033 6.365-.001 1.644 2.685 3.226 5.34 4.813 7.992 1.59 2.657 3.165 5.322 4.8 8.015.127-.203.207-.328.283-.455.974-1.632 1.943-3.268 2.922-4.898 2.035-3.386 4.075-6.768 6.109-10.155.099-.164.156-.353.233-.53 2.075 0 4.151-.003 6.226.006.074 0 .241-.128.249.142Z"
              />
              <path
                fill="#221E50"
                d="M192.152 0c.043.153.032.306.032.459l-.001 30.309v.512H214V37h-28c0-12.314 0-24.61.008-36.953A263.68 263.68 0 0 1 192.152 0Z"
              />
              <path fill="#C7C6D2" d="M168 79h-.982.982Z" />
              <path
                fill="#221E50"
                d="M106.921 76.185V62.972c-.405-.107-15.663-.15-16.794-.05V79h-6.04c-.098-.353-.124-36.383-.021-37h6.036v15.07h16.806V42.012H113v36.983h-6.079v-2.811ZM168.246 78.995c-.641.007-1.236.003-1.88.005-1.272-.08-2.486-.214-3.682-.495-2.083-.488-3.99-1.329-5.635-2.684a10.564 10.564 0 0 1-3.307-4.714c-.368-1.044-.616-2.112-.656-3.222-.013-.348-.055-.696-.086-1.075h6.324c.037.323.067.653.114.98.258 1.813 1.224 3.176 2.788 4.14 1.117.688 2.354 1.025 3.66 1.174 1.461.167 2.895.076 4.303-.34 1.497-.441 2.806-1.176 3.664-2.5.859-1.325 1.042-2.742.385-4.208-.4-.892-1.139-1.472-1.978-1.944-1.105-.621-2.307-.997-3.53-1.306-1.538-.39-3.087-.738-4.626-1.125-1.911-.48-3.796-1.038-5.546-1.96-1.917-1.01-3.431-2.395-4.239-4.42-.373-.936-.545-1.91-.62-2.916-.119-1.612.085-3.166.653-4.677a8.912 8.912 0 0 1 1.824-2.93c1.249-1.355 2.797-2.245 4.532-2.848 1.374-.478 2.789-.785 4.248-.85 1.087-.047 2.179-.116 3.262-.057 1.979.107 3.903.51 5.702 1.358 2.108.994 3.732 2.493 4.787 4.55a10.278 10.278 0 0 1 1.042 3.385c.082.636.108 1.278.158 1.907-.417.116-5.014.156-6.139.065-.037-.307-.059-.623-.116-.934-.383-2.082-1.678-3.425-3.657-4.12-2.425-.853-4.86-.76-7.234.215-1.166.48-2.093 1.264-2.575 2.447-.654 1.607-.212 3.384 1.328 4.453 1.045.725 2.219 1.174 3.44 1.501 1.732.464 3.475.892 5.217 1.323 1.779.441 3.534.958 5.183 1.755 2.186 1.055 3.992 2.516 4.901 4.812.284.718.49 1.483.606 2.245.268 1.76.153 3.512-.382 5.22a9.634 9.634 0 0 1-2.128 3.681c-1.83 1.99-4.171 3.076-6.781 3.677-1.077.247-2.172.39-3.324.432ZM242.712 73.313H252V79h-32V42h5.915v31.313h16.797ZM196.901 53.91v-6.203H186V42h28v5.675h-10.898V79h-6.201V53.91Z"
              />
            </svg>